<svg xmlns="http://www.w3.org/2000/svg" xmlns:xlink="http://www.w3.org/1999/xlink" width="156.5" height="33.5" viewBox="0 0 313 67"><defs><path id="my8ea" d="M1188.648 3300.77v-26.118h21.549v26.118zm51.611 0c2.987-15.912 16.844-26.77 35.143-26.77 18.289 0 32.141 10.92 35.139 26.77h-22.717c-2.11-5.328-6.726-8.76-12.143-8.76-5.487 0-10.367 3.432-12.615 8.76zm74.338 0c3.107-15.82 17.292-26.77 36.038-26.77 10.124 0 21.178 3.919 28.145 10.077l-12.168 14.837c-4.366-4.199-10.682-6.905-16.069-6.905-6.08 0-10.968 3.465-13.188 8.761zm68.513 0c2.988-15.912 16.845-26.77 35.144-26.77 18.288 0 32.14 10.92 35.138 26.77h-22.717c-2.11-5.328-6.725-8.76-12.143-8.76-5.486 0-10.366 3.432-12.615 8.76zm-172.913 21.287h27.122v18.01h-48.671v-28.874h21.549zm100.746-10.864c-1.867 17.4-16.236 29.807-35.541 29.807-19.312 0-33.685-12.334-35.544-29.807h22.31c1.531 6.973 7.176 11.797 13.513 11.797 6.335 0 11.576-4.824 12.987-11.797zm142.851 0c-1.866 17.4-16.236 29.807-35.54 29.807-19.312 0-33.685-12.334-35.545-29.807h22.311c1.53 6.973 7.176 11.797 13.512 11.797 6.335 0 11.576-4.824 12.988-11.797zm-76.036 0v21.409c-7.246 4.852-19.227 8.398-28.515 8.398-19.08 0-33.292-12.369-35.094-29.807h22.305c1.48 7.026 7.057 11.797 14.274 11.797 2.23 0 5.387-.84 8.546-2.146v-9.65zM1166 3305.982c0-4.187 3.378-7.581 7.546-7.581 4.167 0 7.545 3.394 7.545 7.58 0 4.187-3.378 7.581-7.545 7.581-4.168 0-7.546-3.394-7.546-7.58zm297.908 0c0-4.187 3.379-7.581 7.546-7.581 4.168 0 7.546 3.394 7.546 7.58 0 4.187-3.378 7.581-7.546 7.581-4.167 0-7.546-3.394-7.546-7.58z"/></defs><g><g transform="translate(-1166 -3274)"><use fill="#fff" xlink:href="#my8ea"/></g></g></svg>