<svg xmlns="http://www.w3.org/2000/svg" xmlns:xlink="http://www.w3.org/1999/xlink" width="55.5" height="58.5" viewBox="0 0 111 117"><defs><path id="ofx5a" d="M1624.22 3330.618l32.462-65.234a53.712 53.712 0 0 1 21.667 28.276c-6.878 21.541-26.807 37.157-50.425 37.157-1.252 0-2.476-.105-3.703-.199zm56.295-27.434c.315 2.359.485 4.765.485 7.212 0 29.604-23.763 53.603-53.076 53.603-6.554 0-12.802-1.256-18.598-3.45l6.087-12.232c4.015 1.002 8.188 1.594 12.51 1.594 27.002 0 49.243-20.378 52.592-46.727zm-110.515-2.58c0-29.605 23.763-53.604 53.076-53.604a52.411 52.411 0 0 1 21.074 4.414l-47.568 95.591c-15.874-9.266-26.582-26.553-26.582-46.401z"/></defs><g><g transform="translate(-1570 -3247)"><use fill="#fff" xlink:href="#ofx5a"/></g></g></svg>