<svg xmlns="http://www.w3.org/2000/svg" xmlns:xlink="http://www.w3.org/1999/xlink" width="32" height="32" viewBox="0 0 64 64"><defs><path id="b3noa" d="M212.436 2918.47h3.356c1.712.629 2.829 2.498 4.028 3.7l7.048 6.728 1.679 2.355.335 2.355c-.658 2.727-2.367 3.719-4.027 5.383-.896.898-1.545 2.037-2.685 2.691 3.16 5.952 7.115 11.656 12.418 15.475l1.007 1.346h.671l.672 1.009h.671l.336.672h.67l.336.673 1.343.337.336.673 1.342.336c.972.538 1.167 1.18 2.685 1.346.647-1.145 1.79-1.795 2.685-2.692 1.952-1.956 2.646-3.719 6.713-3.7v.336l1.678.337 1.343 1.682 3.692 3.364 4.027 4.373 2.014 1.682c.388.564.003.765.672 1.346v3.364h-.336v.673h-.336l-.335 1.009-2.35 2.019-.671 1.009h-.671l-.671 1.009-2.014.673v.336h-.672v.336l-2.013.337v.337h-2.014v.336c-1.751.494-4.901-.326-6.042-.673h-1.678v-.337h-1.343v-.336h-1.006v-.336h-1.007v-.337h-1.007v-.336h-1.007v-.337h-.671v-.336h-1.007v-.336l-2.014-.673v-.336h-.672v-.337l-2.013-.673-.336-.672-1.342-.337v-.336l-1.007-.337-.336-.673h-.671v-.336l-1.007-.337-.336-.672h-.671l-.672-1.01h-.67c-.225-.336-.448-.672-.672-1.009h-.671l-1.343-1.682h-.671l-3.021-3.364h-.671l-.336-.673-1.342-1.009v-.673l-4.364-4.037v-.672l-2.013-1.683v-.672l-1.343-1.01v-.672l-1.007-.673v-.673l-.671-.337-.336-1.009h-.335v-.673l-.672-.336-.335-1.009h-.336l-.671-2.019-.672-.336v-.673h-.335v-1.009h-.336l-.335-1.346h-.336l-.336-1.682h-.335v-1.346h-.336v-1.009h-.336v-1.682c-1.11-3.73-.59-8.28.672-11.438v-1.009h.335v-.673h.336l.336-1.346.67-.336v-.673l.672-.336v-.673l2.014-1.682.671-1.01h.671l.336-.672h1.007v-.336z"/></defs><g><g transform="translate(-204 -2918)"><use fill="#fff" xlink:href="#b3noa"/></g></g></svg>