<svg xmlns="http://www.w3.org/2000/svg" xmlns:xlink="http://www.w3.org/1999/xlink" width="38" height="28" viewBox="0 0 76 56"><defs><path id="fmn3a" d="M202.104 3093.085l1.32 1.561h.528l1.583 1.822h.528l1.32 1.562h.527l1.583 1.822h.528l1.583 1.821c3.187 2.273 5.787 5.014 8.973 7.288l1.583 1.822h.528l1.583 1.821h.528v.26c.352.261.704.522 1.056.781l.527.781h.528l1.583 1.822h.528l1.584 1.822h.527l1.584 1.822h.528l1.319 1.561c1.137-.157 1.42-.728 2.111-1.301v-.26h.528l1.583-1.822h.528l1.583-1.822h.528l1.583-1.822c4.696-3.347 8.5-7.581 13.195-10.93l1.583-1.823h.528v-.26l1.056-.78.527-.781h.528l1.584-1.822h.527l1.32-1.562h.528l1.583-1.822c.765-.545 1.047-.404 1.583-1.3h.264v-.261l-2.903-1.041h-59.903l-2.903 1.04zm17.945 21.862v-.26h-.528l-1.32-1.562h-.527l-1.583-1.822c-3.188-2.272-5.786-5.014-8.973-7.287l-1.583-1.822h-.528l-1.583-1.822h-.528l-1.583-1.822h-.528l-.528-.78-1.583-1.302c-2.01 1.718-1.583 6.213-1.583 9.89v25.505c0 3.08-.545 9.279 1.055 10.671v.521h.264l3.43-3.904 1.056-.781c2.738-3.733 6.234-6.68 8.972-10.41l2.111-1.822v-.52l2.376-2.083v-.52l2.11-1.822v-.52l2.112-1.822v-.52h.264c.502-.592 1.09-.971 1.319-1.823-.953-.259-1.438-1.003-2.111-1.561zm29.028 3.123v.52c.791.695 1.583 1.388 2.375 2.082v.52l2.111 1.823c2.736 3.731 6.234 6.677 8.972 10.41l2.375 2.082v.52l2.111 1.822v.52l2.375 2.083v.52l2.112 1.823v.26h.264l1.055-2.863v-17.177-23.163h-.264v-1.041c-.281-.782-.85-1.416-1.055-2.343-.848.397-1.47.964-2.112 1.562-.087.174-.176.347-.264.52h-.527v.26l-.792.521-.792 1.041c-3.187 2.273-5.785 5.014-8.972 7.287l-1.583 1.822h-.528l-1.583 1.822h-.528l-1.583 1.822h-.528l-1.583 1.822h-.528l-1.32 1.561h-.528c.313 1.126.83.891 1.32 1.562zm-25.598 4.424l-.791.52v.521h-.264l-.528.78-1.32 1.042c-2.735 3.731-6.232 6.678-8.972 10.41l-2.374 2.082v.52l-2.112 1.823v.52l-1.32 1.042-3.958 4.684h-.263v.26c.94.203 1.582.763 2.375 1.041h1.055v.26h59.903v-.26h1.056c.793-.277 1.435-.838 2.375-1.04v-.26c-.736-.427-.78-.975-1.32-1.562l-1.847-1.562v-.52h-.264l-.791-1.041-1.32-1.042v-.52l-2.11-1.822v-.52l-2.376-2.083v-.52l-2.11-1.822v-.52l-2.376-2.083v-.52l-2.111-1.822v-.52l-2.375-2.082v-.52l-2.111-1.823v-.52l-2.111-1.822c-.405-.437-.208-.66-.792-1.041v-.26l-1.847 1.3-.528.782h-.528l-1.583 1.821h-.528l-1.583 1.822h-.528l-.792 1.041h-.528v.26h-1.847c-.286-.348-.724-.478-1.055-.78l-.264-.52h-.528l-1.583-1.823h-.528l-.792-1.04-.792-.521v-.26h-.527l-.264-.52c-.638-.595-1.262-1.18-2.111-1.562-.543.972-1.346 1.834-2.112 2.602z"/></defs><g><g transform="translate(-197 -3092)"><use fill="#fff" xlink:href="#fmn3a"/></g></g></svg>