<svg xmlns="http://www.w3.org/2000/svg" xmlns:xlink="http://www.w3.org/1999/xlink" width="30.5" height="42" viewBox="0 0 61 84"><defs><path id="qkcza" d="M224.15 2738.99c5.328-.083 9.23.298 12.87 1.72.695.116 1.391.23 2.087.345v.344l2.087.689v.344l1.391.344.348.69 1.391.343.348.689 1.043.344.696 1.033h.695l2.435 2.755 1.391 1.033v.688l1.044.689v.688l1.043.69.348 1.377.696.344.347 1.377h.348l.348 1.377h.348v1.033h.348v.689h.348v1.032c1.52 3.825 2.5 10.065 1.043 14.806v1.721l-3.478 9.985h-.348l-.696 2.066h-.347v.689h-.348v.688h-.348v.689h-.348v.688h-.348v.69h-.347v.688h-.348v.688l-.696.345v.688h-.348v.689h-.348v.688h-.348v.689l-.695.345v.688l-.696.344-.347 1.377h-.348l-.348 1.033-.696.345-.348 1.377-.695.344v.689h-.348l-.348 1.033-.695.344v.689l-1.044.688v.689l-.695.344v.689c-.348.23-.696.46-1.044.688v.689l-.695.344v.689l-1.392 1.033v.688l-1.043.689v.689l-1.044.688v.689l-.695.344v.345l-.696.344v.688c-.464.345-.927.69-1.391 1.033v.69l-1.74 1.376v.689l-1.043.689c-1.38 1.387-1.253 2.063-4.173 2.065l-2.087-2.41-.696-.344v-.689l-1.739-1.377v-.689l-1.391-1.033v-.688l-1.391-1.033v-.689l-.696-.344-.348-1.033-1.391-1.033v-.689l-1.044-.688v-.689l-.695-.344v-.689l-1.044-.688v-.689l-.695-.344v-.689l-1.044-.688v-.689l-.695-.344-.348-1.033h-.348v-.689l-.695-.344-.348-1.377h-.348l-.348-1.033-.696-.345-.347-1.377-.696-.344v-.688l-.696-.345-.695-2.066-.696-.344v-.689h-.348v-.688h-.348v-.689h-.347v-.689h-.348v-.688h-.348v-.689h-.348v-.688h-.348v-.689h-.347l-.696-2.066h-.348v-1.033h-.347l-.348-1.377h-.348l-.348-2.066h-.348v-1.033h-.348v-1.033h-.348v-1.033h-.347v-1.033h-.348l-.348-3.098c-1.452-4.767-.497-10.981 1.043-14.806v-1.032h.348v-.689h.348v-1.033h.348l.348-1.377h.348c.116-.46.231-.919.348-1.377l.695-.345.348-1.377 1.043-.689v-.688l1.044-.689v-.688l1.739-1.378 2.087-2.41h.695l.696-1.033h.696l.695-1.033 1.391-.344.348-.689 1.391-.344v-.344l2.087-.689v-.344h1.044v-.344h1.043v-.345h1.044v-.344h1.39v-.344h1.392v-.345h2.435v-.344zm.349 15.149l-4.87 1.721-.347.689h-.696l-1.044 1.377h-.695l-.348.689h-.348v.688l-1.391 1.033v.689l-.696.344v.689h-.348v.688h-.347v1.033h-.348v.689h-.348l-.696 5.164h.348l.348 4.132c1.057 2.904 3.828 6.743 6.26 8.264l2.087.688v.344h.696v.345h1.044c1.238.484 4.382 1.68 6.608 1.033v-.345h1.739v-.344l2.087-.344v-.345h.695v-.344l2.087-.689.696-1.032h.696l1.043-1.378 1.044-.688v-.69l1.043-.688v-.688h.348l.695-2.066h.348v-1.033h.348l.348-4.476h.348v-.344h-.348l-.348-4.476h-.348v-.689h-.348v-1.033h-.347v-.688h-.348v-.689l-.696-.344v-.689l-1.391-1.033v-.688l-.696-.345v-.344h-.695l-1.044-1.377-1.391-.344-.348-.689c-1.391-.46-2.783-.919-4.174-1.377H224.5z"/></defs><g><g transform="translate(-197 -2739)"><use fill="#fff" xlink:href="#qkcza"/></g></g></svg>